<svg xmlns="http://www.w3.org/2000/svg" viewBox="0 0 24 24" width="24" height="24">
  <rect width="24" height="24" rx="4" fill="#111827" />
  <g fill="#ffffff">
    <rect x="3" y="3" width="6" height="6" rx="1" />
    <rect x="5" y="5" width="2" height="2" fill="#111827" />
    <rect x="15" y="3" width="6" height="6" rx="1" />
    <rect x="17" y="5" width="2" height="2" fill="#111827" />
    <rect x="3" y="15" width="6" height="6" rx="1" />
    <rect x="5" y="17" width="2" height="2" fill="#111827" />
    <rect x="12" y="3" width="2" height="2" />
    <rect x="12" y="7" width="2" height="2" />
    <rect x="15" y="12" width="2" height="2" />
    <rect x="19" y="12" width="2" height="2" />
    <rect x="12" y="12" width="2" height="2" />
    <rect x="12" y="16" width="2" height="2" />
    <rect x="16" y="16" width="2" height="2" />
    <rect x="19" y="19" width="2" height="2" />
    <rect x="12" y="19" width="2" height="2" />
  </g>
</svg>
