<svg xmlns="http://www.w3.org/2000/svg" viewBox="0 0 100 100" width="100" height="100">
  <!-- Icône « maskable » : fond plein débordant jusqu'aux bords (pas de coins
       transparents) et motif QR centré dans la zone de sécurité (~80 %). -->
  <rect width="100" height="100" fill="#111827" />
  <g fill="#ffffff" transform="translate(22 22) scale(2.333)">
    <rect x="0" y="0" width="6" height="6" rx="1" />
    <rect x="2" y="2" width="2" height="2" fill="#111827" />
    <rect x="12" y="0" width="6" height="6" rx="1" />
    <rect x="14" y="2" width="2" height="2" fill="#111827" />
    <rect x="0" y="12" width="6" height="6" rx="1" />
    <rect x="2" y="14" width="2" height="2" fill="#111827" />
    <rect x="9" y="0" width="2" height="2" />
    <rect x="9" y="4" width="2" height="2" />
    <rect x="12" y="9" width="2" height="2" />
    <rect x="16" y="9" width="2" height="2" />
    <rect x="9" y="9" width="2" height="2" />
    <rect x="9" y="13" width="2" height="2" />
    <rect x="13" y="13" width="2" height="2" />
    <rect x="16" y="16" width="2" height="2" />
    <rect x="9" y="16" width="2" height="2" />
  </g>
</svg>
