<svg xmlns="http://www.w3.org/2000/svg" width="1200" height="630" viewBox="0 0 1200 630">
  <defs>
    <linearGradient id="bg" x1="0" y1="0" x2="1" y2="1">
      <stop offset="0" stop-color="#1e1b4b" />
      <stop offset="0.55" stop-color="#312e81" />
      <stop offset="1" stop-color="#030712" />
    </linearGradient>
    <radialGradient id="glow" cx="0.85" cy="0.1" r="0.9">
      <stop offset="0" stop-color="#6366f1" stop-opacity="0.45" />
      <stop offset="1" stop-color="#6366f1" stop-opacity="0" />
    </radialGradient>
  </defs>

  <rect width="1200" height="630" fill="url(#bg)" />
  <rect width="1200" height="630" fill="url(#glow)" />

  <!-- Texte -->
  <text x="90" y="250" fill="#ffffff" font-family="Segoe UI, Helvetica, Arial, sans-serif" font-size="68" font-weight="700">Générateur</text>
  <text x="90" y="330" fill="#ffffff" font-family="Segoe UI, Helvetica, Arial, sans-serif" font-size="68" font-weight="700">de QR code</text>
  <text x="92" y="392" fill="#c7d2fe" font-family="Segoe UI, Helvetica, Arial, sans-serif" font-size="30" font-weight="400">Texte · URL · WiFi · Email · SMS · vCard · Géo</text>
  <text x="92" y="446" fill="#a5b4fc" font-family="Segoe UI, Helvetica, Arial, sans-serif" font-size="26" font-weight="400">Couleurs · formes · logo — export PNG / SVG</text>
  <text x="92" y="540" fill="#818cf8" font-family="Segoe UI, Helvetica, Arial, sans-serif" font-size="24" font-weight="600">100 % dans le navigateur — aucune donnée envoyée</text>

  <!-- Carte QR -->
  <g transform="translate(820 165)">
    <rect width="300" height="300" rx="28" fill="#ffffff" />
    <g fill="#111827" transform="translate(40 40) scale(9.166)">
      <rect x="0" y="0" width="6" height="6" rx="1" />
      <rect x="2" y="2" width="2" height="2" fill="#ffffff" />
      <rect x="12" y="0" width="6" height="6" rx="1" />
      <rect x="14" y="2" width="2" height="2" fill="#ffffff" />
      <rect x="0" y="12" width="6" height="6" rx="1" />
      <rect x="2" y="14" width="2" height="2" fill="#ffffff" />
      <rect x="9" y="0" width="2" height="2" />
      <rect x="9" y="4" width="2" height="2" />
      <rect x="12" y="9" width="2" height="2" />
      <rect x="16" y="9" width="2" height="2" />
      <rect x="9" y="9" width="2" height="2" />
      <rect x="9" y="13" width="2" height="2" />
      <rect x="13" y="13" width="2" height="2" />
      <rect x="16" y="16" width="2" height="2" />
      <rect x="9" y="16" width="2" height="2" />
    </g>
  </g>
</svg>
